<?xml version="1.0" encoding="UTF-8"?>
<svg xmlns="http://www.w3.org/2000/svg" version="1.1" viewBox="0 0 576 512">
  <defs>
    <style>
      .cls-1 {
        fill: #0f4fb5;
      }
    </style>
  </defs>
  <!-- Generator: Adobe Illustrator 28.7.1, SVG Export Plug-In . SVG Version: 1.2.0 Build 142)  -->
  <g>
    <g id="Layer_1">
      <path class="cls-1" d="M407.8,294.7c-3.3-.4-6.7-.8-10-1.3,3.4.4,6.7.9,10,1.3ZM288,227.1c-26.1-50.7-97.1-145.2-163.1-191.8C61.6-9.4,37.5-1.7,21.6,5.5,3.3,13.8,0,41.9,0,58.4s9.1,135.6,15,155.5c19.5,65.7,89.1,87.9,153.2,80.7,3.3-.5,6.6-.9,10-1.4-3.3.5-6.6,1-10,1.4-93.9,14-177.3,48.2-67.9,169.9,120.3,124.6,164.8-26.7,187.7-103.4,22.9,76.7,49.2,222.5,185.6,103.4,102.4-103.4,28.1-156-65.8-169.9-3.3-.4-6.7-.8-10-1.3,3.4.4,6.7.9,10,1.3,64.1,7.1,133.6-15.1,153.2-80.7,5.9-19.9,15-138.9,15-155.5s-3.3-44.7-21.6-52.9c-15.8-7.1-40-14.9-103.2,29.8-66.1,46.6-137.1,141.1-163.2,191.8Z"/>
    </g>
  </g>
</svg>