<?xml version="1.0" encoding="UTF-8"?>
<svg xmlns="https://www.w3.org/2000/svg" version="1.1" viewBox="0 0 512 512">
  <defs>
    <style>
      .cls-1 {
        fill: #0f4fb5;
      }
    </style>
  </defs>
  <!-- Generator: Adobe Illustrator 28.7.1, SVG Export Plug-In . SVG Version: 1.2.0 Build 142)  -->
  <g>
    <g id="Layer_1">
      <path class="cls-1" d="M390.9,298.5s0,.1.1.1c9.2,19.4,14.4,41.1,14.4,64-.1,82.5-66.9,149.4-149.4,149.4s-149.3-66.9-149.3-149.3,5.2-44.6,14.4-64h0c1.7-3.6,3.6-7.2,5.6-10.7,4.4-7.6,9.4-14.7,15-21.3,27.4-32.6,68.5-53.3,114.4-53.3s64.6,11.1,89.6,29.9c9.1,6.9,17.4,14.7,24.8,23.5,5.6,6.6,10.6,13.8,15,21.3,2,3.4,3.8,7,5.5,10.5h-.1ZM417.3,279.7c-30.1-58.4-91-98.4-161.3-98.4s-131.2,40-161.3,98.4L0,202.7,256,0l256,202.7-94.7,77.1h0Z"/>
    </g>
  </g>
</svg>