<?xml version="1.0" encoding="UTF-8"?>
<svg xmlns="https://www.w3.org/2000/svg" version="1.1" viewBox="0 0 78.2 54.3">
  <defs>
    <style>
      .cls-1 {
        fill: #182953;
      }
    </style>
  </defs>
  <!-- Generator: Adobe Illustrator 28.7.1, SVG Export Plug-In . SVG Version: 1.2.0 Build 142)  -->
  <g>
    <g id="Layer_1">
      <path class="cls-1" d="M61.28,0l-13.5,13.6v-7.1C47.78,2.99,44.88,0,41.18,0h-7.2l-13.6,13.6V0h-6.8L.08,13.59v40.7h8.4c1,0,2.3-.5,3.2-1.3l7.4-7.4c.8-.8,1.3-2.1,1.3-3.3v-21.9l6.8-6.8,2,2c1,1,1.5,2.2,1.5,3.4v35.3h5.2c.9,0,2.3-.5,3.2-1.4l7.3-7.3c.8-.8,1.3-2.1,1.3-3.1v-22.2l6.8-6.8,2.1,2.1c.8.8,1.4,2,1.4,3.4v35.3h8.3c1.2,0,2.5-.5,3.3-1.4l7.6-7.6c.6-.6,1.1-1.9,1.1-3.1V6.69C78.28,2.69,75.08,0,71.78,0h-10.5Z"/>
    </g>
  </g>
</svg>