<?xml version="1.0" encoding="UTF-8"?>
<svg id="a" data-name="Layer 1" xmlns="http://www.w3.org/2000/svg" width="78.1" height="54.2" viewBox="0 0 78.1 54.2">
  <defs>
    <style>
      .b {
        fill: #002554;
      }
    </style>
  </defs>
  <path class="b" d="M61.1.1l-13.6,13.5v-7c0-3.5-2.8-6.5-6.5-6.5h-7.2l-13.5,13.5V.1h-6.7L0,13.6v40.6h8.1c1,0,2.3-.5,3.2-1.3l7.7-7.6c.8-.8,1.3-2.1,1.3-3.3v-21.6l6.8-6.8,2,2c1,1,1.5,2.2,1.5,3.4v35.2h4.9c.9,0,2.3-.5,3.2-1.4l7.6-7.6c.8-.8,1.3-2.1,1.3-3.1v-21.8l6.8-6.8,2.1,2.1c.8.8,1.4,2,1.4,3.4v35.1h8c1.2,0,2.5-.5,3.3-1.4l7.8-7.8c.6-.6,1.1-1.9,1.1-3V6.7c0-3.9-3.2-6.7-6.5-6.7h-10.5v.1Z"/>
</svg>