<?xml version="1.0" encoding="UTF-8"?>
<svg xmlns="http://www.w3.org/2000/svg" version="1.1" viewBox="0 0 448 512">
  <defs>
    <style>
      .cls-1 {
        fill: #0f4fb5;
      }
    </style>
  </defs>
  <!-- Generator: Adobe Illustrator 28.7.1, SVG Export Plug-In . SVG Version: 1.2.0 Build 142)  -->
  <g>
    <g id="Layer_1">
      <path class="cls-1" d="M0,32v448h448V32H0ZM262.2,366.4c-6.6,3-33.2,6-50-14.2-9.2-10.6-25.3-33.3-42.2-63.6-8.9,0-14.7,0-21.4-.6v46.4c0,23.5,6,21.2,25.8,23.9v8.1c-6.9-.3-23.1-.8-35.6-.8s-26.1.6-33.6.8v-8.1c15.5-2.9,22-1.3,22-23.9v-109.4c0-22.6-6.4-21-22-23.9v-8.1c25.8,1,53.1-.6,70.9-.6,31.7,0,55.9,14.4,55.9,45.6s-16.7,42.2-39.2,47.5c13.6,24.2,30,45.6,42.2,58.9,7.2,7.8,17.2,14.7,27.2,14.7v7.3h0ZM285.1,231.4c-23.3,0-32.2-15.7-32.2-32.2v-32.2c0-12.2,8.8-30.4,34-30.4s30.4,17.9,30.4,17.9l-10.7,7.2s-5.5-12.5-19.7-12.5-19.7,7.3-19.7,19.7v26.8c0,13.4,6.6,23.3,17.9,23.3s21.5-10.9,21.5-26.8h-17.9v-10.7h30.4c0,20.5,4.7,49.9-34,49.9h0ZM168.6,276.1c-9.4,0-13.6-.3-20-.8v-69.7c6.4-.6,15-.6,22.5-.6,23.3,0,37.2,12.2,37.2,34.5s-15,36.6-39.7,36.6Z"/>
    </g>
  </g>
</svg>